<svg width="28" height="28" viewBox="0 0 28 28" fill="none" xmlns="http://www.w3.org/2000/svg">
<path d="M23.9962 14.0001C24.3235 12.9565 24.5 11.9101 24.5 10.8953C24.5 7.45233 21.8855 4.66675 18.662 4.66675C16.7615 4.66675 15.0605 5.64727 14 7.16263C12.9395 5.64727 11.249 4.66675 9.338 4.66675C6.1145 4.66675 3.5 7.45233 3.5 10.8953C3.5 12.1761 3.70112 13.4109 4.07206 14.5834M23.9962 14.0001C22.6407 18.3226 18.6989 22.5968 14 24.3782C9.37768 22.6258 5.48789 19.0586 4.07206 14.5834M23.9962 14.0001H21.1209C21.0434 14.0001 20.9693 13.9694 20.9146 13.9147L19.5362 12.5363C19.3954 12.3954 19.1581 12.4339 19.069 12.612L17.6809 15.3882C17.5919 15.5662 17.3546 15.6047 17.2138 15.4639L15.9935 14.2436C15.866 14.116 15.6547 14.1335 15.5499 14.2802L13.2093 17.5569C13.0634 17.7614 12.7443 17.6978 12.6879 17.4529L11.254 11.2395C11.1939 10.9792 10.8446 10.9299 10.7148 11.1634L8.3851 15.3569C8.28247 15.5416 8.02359 15.5593 7.8968 15.3903L6.61844 13.6858C6.51195 13.5438 6.30438 13.529 6.17887 13.6545L5.33542 14.498C5.28073 14.5527 5.20654 14.5834 5.12919 14.5834H4.60626H4.07206" stroke="#FF7878" stroke-width="1.75" stroke-linecap="round" stroke-linejoin="round"/>
</svg>
